<svg width="46" height="56" fill="none" xmlns="http://www.w3.org/2000/svg"><path fill-rule="evenodd" clip-rule="evenodd" d="M37 20v-3c0-7.732-6.268-14-14-14S9 9.268 9 17v3H8c-.69 0-1.36.087-2 .252V17C6 7.611 13.611 0 23 0s17 7.611 17 17v3.252A8.016 8.016 0 0038 20h-1z" fill="#C4C4C4"/><path fill-rule="evenodd" clip-rule="evenodd" d="M8 20a8 8 0 00-8 8v20a8 8 0 008 8h30a8 8 0 008-8V28a8 8 0 00-8-8H8zm1 3a6 6 0 00-6 6v18a6 6 0 006 6h28a6 6 0 006-6V29a6 6 0 00-6-6H9z" fill="#C4C4C4"/><rect x="6" y="26" width="34" height="24" rx="4" fill="#4D4D4D"/></svg>